{"title":"FakeTaxi.E63.Candi.XXX.1080p.MOV-KTR","uid":9033251,"size":1085388645,"categoryP":"porn","categoryS":"movie_clips","magnet":"?xt=urn:btih:6c797597d2e305db9d63f52d85ab7afcc2483433&amp;dn=FakeTaxi.E63.Candi.XXX.1080p.MOV-KTR&amp;tr=udp%3A%2F%2Ftracker.openbittorrent.com%3A80&amp;tr=udp%3A%2F%2Fopen.demonii.com%3A1337&amp;tr=udp%3A%2F%2Ftracker.coppersurfer.tk%3A6969&amp;tr=udp%3A%2F%2Fexodus.desync.com%3A6969","seeders":0,"leechers":0,"uploader":null,"files":2,"time":1381459219,"description":" &lt;a href=&quot;http://bayimg.com/daAboAafN&quot; rel=&quot;nofollow&quot; target=&quot;_NEW&quot;&gt;http://bayimg.com/daAboAafN&lt;/a&gt;\n\n\nWell this was a first she wasn't in the taxi for 2 minutes before she asked if I would except a blowjob instead of money for the fare. Well fuck me, it doesn't get better than this. And what a cracking pair of tits.\n\nFormat : MPEG-4\nFormat profile : QuickTime\nCodec ID : qt\nFile size : 1.01 GiB\nDuration : 24mn 14s\nOverall bit rate : 5 971 Kbps\nEncoded date : UTC 2013-10-01 17:19:24\nTagged date : UTC 2013-10-01 22:04:27\nWriting library : Apple QuickTime\nMedia/UUID : C903A862-3F73-452B-A521-A89E91697B53\n\nVideo\nID : 1\nFormat : AVC\nFormat/Info : Advanced Video Codec\nFormat profile : &lt;a class=&quot;__cf_email__&quot; href=&quot;/cdn-cgi/l/email-protection&quot; data-cfemail=&quot;bef3dfd7d0fef28a908e&quot;&gt;[email&amp;#160;protected]&lt;/a&gt;&lt;script cf-hash='f9e31' type=&quot;text/javascript&quot;&gt;\n/* &lt;![CDATA[ */!function(){try{var t=&quot;currentScript&quot;in document?document.currentScript:function(){for(var t=document.getElementsByTagName(&quot;script&quot;),e=t.length;e--;)if(t[e].getAttribute(&quot;cf-hash&quot;))return t[e]}();if(t&amp;&amp;t.previousSibling){var e,r,n,i,c=t.previousSibling,a=c.getAttribute(&quot;data-cfemail&quot;);if(a){for(e=&quot;&quot;,r=parseInt(a.substr(0,2),16),n=2;a.length-n;n+=2)i=parseInt(a.substr(n,2),16)^r,e+=String.fromCharCode(i);e=document.createTextNode(e),c.parentNode.replaceChild(e,c)}}}catch(u){}}();/* ]]&gt; */&lt;/script&gt;\nFormat settings, CABAC : No\nFormat settings, ReFrames : 2 frames\nFormat settings, GOP : M=2, N=50\nCodec ID : avc1\nCodec ID/Info : Advanced Video Coding\nDuration : 24mn 14s\nBit rate : 5 840 Kbps\nWidth : 1 888 pixels\nOriginal width : 1 920 pixels\nHeight : 1 062 pixels\nOriginal height : 1 080 pixels\nDisplay aspect ratio : 16:9\nFrame rate mode : Constant\nFrame rate : 25.000 fps\nColor space : YUV\nChroma subsampling : 4:2:0\nBit depth : 8 bits\nScan type : Progressive\nBits/(Pixel*Frame) : 0.117\nStream size : 1 012 MiB (98%)\nLanguage : English\nEncoded date : UTC 2013-10-01 22:02:58\nTagged date : UTC 2013-10-01 22:04:27\nColor primaries : BT.709\nTransfer characteristics : BT.709\nMatrix coefficients : BT.709\n\nAudio\nID : 2\nFormat : AAC\nFormat/Info : Advanced Audio Codec\nFormat profile : LC\nCodec ID : 40\nDuration : 24mn 14s\nSource duration : 24mn 14s\nBit rate mode : Constant\nBit rate : 128 Kbps\nChannel(s) : 2 channels\nChannel positions : Front: L R\nSampling rate : 44.1 KHz\nCompression mode : Lossy\nStream size : 21.8 MiB (2%)\nSource stream size : 21.8 MiB (2%)\nLanguage : English\nEncoded date : UTC 2013-10-01 22:02:58\nTagged date : UTC 2013-10-01 22:04:27\n\nMenu\nID : 3\nDuration : 24mn 14s\nLanguage : English\nEncoded date : UTC 2013-10-01 22:04:27\nTagged date : UTC 2013-10-01 22:04:27","torrent":{"xt":"urn:btih:6c797597d2e305db9d63f52d85ab7afcc2483433","amp;dn":"FakeTaxi.E63.Candi.XXX.1080p.MOV-KTR","amp;tr":["udp%3A%2F%2Ftracker.openbittorrent.com%3A80","udp%3A%2F%2Fopen.demonii.com%3A1337","udp%3A%2F%2Ftracker.coppersurfer.tk%3A6969","udp%3A%2F%2Fexodus.desync.com%3A6969"],"infoHash":"6c797597d2e305db9d63f52d85ab7afcc2483433","infoHashBuffer":{"type":"Buffer","data":[108,121,117,151,210,227,5,219,157,99,245,45,133,171,122,252,194,72,52,51]},"announce":[],"urlList":[]}}